/* XPM */
static char * enemy2_xpm[] = {
"64 64 164 2",
"  	c #70A853",
". 	c #6FA853",
"+ 	c #5D9448",
"@ 	c #6EA652",
"# 	c #63A04B",
"$ 	c #70A852",
"% 	c #6FA851",
"& 	c #769E4F",
"* 	c #808748",
"= 	c #6FA953",
"- 	c #6EA551",
"; 	c #2F6B31",
"> 	c #377335",
", 	c #6FA752",
"' 	c #7FA271",
") 	c #959694",
"! 	c #6EA752",
"~ 	c #71A652",
"{ 	c #669142",
"] 	c #74A151",
"^ 	c #7D8E4A",
"/ 	c #5E9D47",
"( 	c #539741",
"_ 	c #5F9F48",
": 	c #396F35",
"< 	c #477E3C",
"[ 	c #689F4E",
"} 	c #708E45",
"| 	c #6DA651",
"1 	c #6CA550",
"2 	c #71A953",
"3 	c #70A953",
"4 	c #7C904B",
"5 	c #68A34E",
"6 	c #5D9D47",
"7 	c #69A04F",
"8 	c #508841",
"9 	c #86673C",
"0 	c #609E49",
"a 	c #3A7735",
"b 	c #3D7736",
"c 	c #81A174",
"d 	c #6FA753",
"e 	c #6BA350",
"f 	c #689D4E",
"g 	c #7E8E4A",
"h 	c #7A964D",
"i 	c #70A752",
"j 	c #867743",
"k 	c #6CA651",
"l 	c #62994B",
"m 	c #397536",
"n 	c #619F49",
"o 	c #65A14C",
"p 	c #539241",
"q 	c #376D34",
"r 	c #4B7A3E",
"s 	c #589144",
"t 	c #568C44",
"u 	c #538842",
"v 	c #6CA650",
"w 	c #6AA44F",
"x 	c #949892",
"y 	c #7C9D71",
"z 	c #6EA751",
"A 	c #2B5E94",
"B 	c #886D3F",
"C 	c #837E45",
"D 	c #70A854",
"E 	c #A4C8DF",
"F 	c #67B5E3",
"G 	c #6FA759",
"H 	c #70A855",
"I 	c #6FA754",
"J 	c #6DA459",
"K 	c #43BFD2",
"L 	c #3F90BF",
"M 	c #6FA95D",
"N 	c #6FA95A",
"O 	c #71A857",
"P 	c #71A958",
"Q 	c #70A856",
"R 	c #6EA75C",
"S 	c #6FA857",
"T 	c #4B843E",
"U 	c #397334",
"V 	c #5B9846",
"W 	c #629F4A",
"X 	c #62A04A",
"Y 	c #2C5E94",
"Z 	c #98CCEC",
"` 	c #3B6891",
" .	c #35678E",
"..	c #316194",
"+.	c #47BCCF",
"@.	c #396A8E",
"#.	c #49BDC9",
"$.	c #37698F",
"%.	c #759E4F",
"&.	c #6FA95B",
"*.	c #356690",
"=.	c #6BA250",
"-.	c #376D35",
";.	c #4A823E",
">.	c #6DA559",
",.	c #295E94",
"'.	c #316492",
").	c #519440",
"!.	c #68A24E",
"~.	c #66A14D",
"{.	c #508B40",
"].	c #2E6A31",
"^.	c #6CA35B",
"/.	c #316392",
"(.	c #6FA755",
"_.	c #747B3D",
":.	c #857642",
"<.	c #759F50",
"[.	c #71A753",
"}.	c #857A44",
"|.	c #74A150",
"1.	c #71A853",
"2.	c #838146",
"3.	c #8B9C85",
"4.	c #869F7C",
"5.	c #818647",
"6.	c #65A24B",
"7.	c #7EA36F",
"8.	c #80A173",
"9.	c #7F8446",
"0.	c #7D743D",
"a.	c #808848",
"b.	c #6CA551",
"c.	c #629756",
"d.	c #72A452",
"e.	c #70A753",
"f.	c #6EA558",
"g.	c #6FA954",
"h.	c #6EA557",
"i.	c #7F9979",
"j.	c #69A44E",
"k.	c #6FA852",
"l.	c #64A14C",
"m.	c #769E50",
"n.	c #808749",
"o.	c #5A9849",
"p.	c #969696",
"q.	c #899D82",
"r.	c #60984A",
"s.	c #62974B",
"t.	c #71A752",
"u.	c #5D9E46",
"v.	c #67A34D",
"w.	c #76934A",
"x.	c #407838",
"y.	c #427F38",
"z.	c #71A756",
"A.	c #6DA552",
"B.	c #5D9E45",
"C.	c #7F743E",
"D.	c #548C43",
"E.	c #4F8540",
"F.	c #6AA14F",
"G.	c #4F923F",
"                                                                                                                                ",
"                    .                                                                                                           ",
"    + @           . #                   $ %                                                 & *             =                   ",
"    - ; > ,                             ' ) %                                       ,       ! ~           { ]       ^           ",
"    / ( _                                                                         : < [                             }           ",
"                                                                                  | 1                                           ",
"              2     3                                                                                                 4         ",
"5 6           7   @ 8                                                                                                 9         ",
"              0 a b                                 $ c $                                                                       ",
"                                                      1                                                                         ",
"  d e e                                                                                                                         ",
"    f .                                                                                                                         ",
"                                                                                                                                ",
"                                                                                                                                ",
"                                                                      5                       g h               h               ",
"                                                                      6                       |               i j               ",
"    k         l 2 m             n |                                                 3                                           ",
"    o .       p q 1                                                                 r   ,                                       ",
"                                                        k o                         s t u                                       ",
"                                                          .                         , v                                         ",
"                                                                w 0                                                 $ x y       ",
"                  1 z                                     A A A A A                           B C       D             1 |       ",
"              D D                                     A A E E F F F A                                                           ",
"              D G H D I J                           A E E K K K L L F A A                                                       ",
"                M N H                         A E E L K K K K K K K K L L F A                   D H                             ",
"                D                             E L L K K E K K K K K K K K A F A               O P Q                             ",
"                    w                       A L K K E K K K K K K K K K K K L F A             R S                               ",
"  T   ,         D   0                 /   A E K K K K K A K K K K A A K K K K L F           D H                         ^       ",
"  n U V       D               W o     X Y E L K K K K K L K K K K L Z K K K K A L `                                     }       ",
"              D                         A E L K K K K K K K K K K K K K K K K K A  .                                            ",
"            n |                   0     A Z ..K K +.+.+.+.+.+.+.+.+.+.+.+.+.K K A @.                                      j     ",
"    0 |                           |     A Z ..E E +.+.+.+.+.+.+.+.+.+.+.#.F F #...$.                                      %.    ",
"                                  D   &.A Z E A A L K K +.K K K K K K L L A A F F *.                      , =.-.                ",
"                  ;.              >.    A Z A A A ,.L L L L L L L L L L A A A A A '.                      1 ).!.                ",
"              ~.{.].              ^.    A Z A A A A L L L L L L L L L L L A A A A /.      4                                     ",
"                v v                       A Z A A A A A A A A A A A A A A A A Z Z         9                                     ",
"  (.D                     I                   A Z Z Z Z Z Z Z Z Z Z Z Z Z Z A                                                   ",
"                                                A A A A A A A A A A A A A A                                                     ",
"                                                                                                            &                   ",
"                                                                                                            _.~     :.<.        ",
"                w 0                                           0                   =                       j   [.}.  3 [.}.      ",
"                                    .                         |   ,             = 4 =                   [.%.    |.  ^   |.      ",
"                                  . #                               1.            3         h         - 2.  h       }   3       ",
"  3.4.                                                                                    i j             i j ~       ~ 5.      ",
"    6.    7.8.                                                                        4       5             3 9.3 0.a.  3       ",
"          b.c.                5                                                       9                               d.e.      ",
"    f.I                                                                                                               W g.      ",
"  h.                                                                                                                            ",
"  i.j.                                                                                                                          ",
"                                                                                                                                ",
"                                                                                                                            D   ",
"                                    W     .                                                                               D S H ",
"    $ % k.                  w   n   o     l.                                                  D               2         m.n.    ",
"    o.p.q.                  0   | 1   / X                                                               2 7 r.s.        ! ~ t.  ",
"    w u.6.                    v.w z       5                                     w.j                       x.y.|           ~ 2.  ",
"                    z.            1       6                                                 [.                        A.2       ",
"                  . B.            z                                                         C.|.                  D.E.F.        ",
"                                      5                                                                           1 G..         ",
"                                w                                                                                               ",
"                                0                                   .                                                           ",
"                                                                  . #                         [.}.                              ",
"                                                                                                |.                              ",
"                                                                                                    6                           ",
"                                                                                                                                "};
