/* XPM */
static char * enemy_xpm[] = {
"64 64 143 2",
"  	c #70A853",
". 	c #6FA853",
"+ 	c #5D9448",
"@ 	c #6EA652",
"# 	c #63A04B",
"$ 	c #70A852",
"% 	c #6FA851",
"& 	c #769E4F",
"* 	c #808748",
"= 	c #6FA953",
"- 	c #6EA551",
"; 	c #2F6B31",
"> 	c #377335",
", 	c #6FA752",
"' 	c #7FA271",
") 	c #959694",
"! 	c #6EA752",
"~ 	c #71A652",
"{ 	c #669142",
"] 	c #74A151",
"^ 	c #7D8E4A",
"/ 	c #5E9D47",
"( 	c #539741",
"_ 	c #5F9F48",
": 	c #396F35",
"< 	c #477E3C",
"[ 	c #689F4E",
"} 	c #708E45",
"| 	c #6DA651",
"1 	c #6CA550",
"2 	c #71A953",
"3 	c #70A953",
"4 	c #7C904B",
"5 	c #68A34E",
"6 	c #5D9D47",
"7 	c #69A04F",
"8 	c #508841",
"9 	c #86673C",
"0 	c #609E49",
"a 	c #3A7735",
"b 	c #3D7736",
"c 	c #81A174",
"d 	c #6FA753",
"e 	c #6BA350",
"f 	c #689D4E",
"g 	c #7E8E4A",
"h 	c #7A964D",
"i 	c #70A752",
"j 	c #867743",
"k 	c #6CA651",
"l 	c #62994B",
"m 	c #397536",
"n 	c #619F49",
"o 	c #65A14C",
"p 	c #539241",
"q 	c #376D34",
"r 	c #4B7A3E",
"s 	c #589144",
"t 	c #568C44",
"u 	c #538842",
"v 	c #6CA650",
"w 	c #6AA44F",
"x 	c #949892",
"y 	c #7C9D71",
"z 	c #6EA751",
"A 	c #886D3F",
"B 	c #837E45",
"C 	c #2B5E94",
"D 	c #70A854",
"E 	c #A4C8DF",
"F 	c #67B5E3",
"G 	c #6FA754",
"H 	c #43BFD2",
"I 	c #3F90BF",
"J 	c #4B843E",
"K 	c #397334",
"L 	c #5B9846",
"M 	c #629F4A",
"N 	c #62A04A",
"O 	c #80A271",
"P 	c #6FA959",
"Q 	c #98CCEC",
"R 	c #6FA95D",
"S 	c #70A855",
"T 	c #6FA95A",
"U 	c #759E4F",
"V 	c #6BA250",
"W 	c #376D35",
"X 	c #4A823E",
"Y 	c #519440",
"Z 	c #68A24E",
"` 	c #66A14D",
" .	c #508B40",
"..	c #2E6A31",
"+.	c #6FA755",
"@.	c #769E50",
"#.	c #747B3D",
"$.	c #857642",
"%.	c #759F50",
"&.	c #71A753",
"*.	c #857A44",
"=.	c #74A150",
"-.	c #71A853",
";.	c #838146",
">.	c #8B9C85",
",.	c #869F7C",
"'.	c #818647",
").	c #65A24B",
"!.	c #7EA36F",
"~.	c #80A173",
"{.	c #7F8446",
"].	c #7D743D",
"^.	c #808848",
"/.	c #6CA551",
"(.	c #629756",
"_.	c #72A452",
":.	c #70A753",
"<.	c #70A857",
"[.	c #6FA954",
"}.	c #7F9979",
"|.	c #69A44E",
"1.	c #6FA852",
"2.	c #64A14C",
"3.	c #5A9849",
"4.	c #969696",
"5.	c #899D82",
"6.	c #60984A",
"7.	c #62974B",
"8.	c #71A752",
"9.	c #5D9E46",
"0.	c #67A34D",
"a.	c #76934A",
"b.	c #407838",
"c.	c #427F38",
"d.	c #71A756",
"e.	c #6DA552",
"f.	c #5D9E45",
"g.	c #7F743E",
"h.	c #548C43",
"i.	c #4F8540",
"j.	c #6AA14F",
"k.	c #4F923F",
"l.	c #71A857",
"                                                                                                                                ",
"                    .                                                                                                           ",
"    + @           . #                   $ %                                                 & *             =                   ",
"    - ; > ,                             ' ) %                                       ,       ! ~           { ]       ^           ",
"    / ( _                                                                         : < [                             }           ",
"                                                                                  | 1                                           ",
"              2     3                                                                                                 4         ",
"5 6           7   @ 8                                                                                                 9         ",
"              0 a b                                 $ c $                                                                       ",
"                                                      1                                                                         ",
"  d e e                                                                                                                         ",
"    f .                                                                                                                         ",
"                                                                                                                                ",
"                                                                                                                                ",
"                                                                      5                       g h               h               ",
"                                                                      6                       |               i j               ",
"    k         l 2 m             n |                                                 3                                           ",
"    o .       p q 1                                                                 r   ,                                       ",
"                                                        k o                         s t u                                       ",
"                                                          .                         , v                                         ",
"                                                                w 0                                                 $ x y       ",
"                  1 z                                                                         A B                     1 |       ",
"                                                          C C C C C                                               D             ",
"                                                      C C E E F F F C                                               G           ",
"                                                    C E E H H H I I F C C                                             D G       ",
"                                              C E E I H H H H H H H H I I F C                                                   ",
"                    w                         E I I H H E H H H H H H H H C F C                                                 ",
"  J   ,             0                 /     C I H H E H H H H H H H H H H H I F C                                       ^       ",
"  n K L                       M o     N   C E H H H H H C H H H H C C H H H H I F O               P                     }       ",
"                                        C E I H H H H H I H H H H I Q H H H H C I C             D R                             ",
"            n |                   0     C E I H H H H H H H H H H H H H H H H H C C             S T                       j     ",
"    0 |                           |     C Q C H H H H H H H H H H H H H H H H H C C     G             D                   U     ",
"                                        C Q C H H H H H H H H H H H H H H H H H C C     G             S D , V W                 ",
"                  X                     C Q C E E C I H H H H H H H H I I C F F C C   T               D   1 Y Z                 ",
"              `  ...                    C Q C C C C I I I I I I I I I I I C C C C C     D 4                                     ",
"                v v                     C Q Q C C C C C C C C C C C C C C C C Q Q C     +.9                                     ",
"                                          C C Q C C C C C C C C C C C C C C Q C C                                               ",
"                                                C C C C C C C C C C C C C C                                                     ",
"                                                                                                            @.                  ",
"                                                                                                            #.~     $.%.        ",
"                w 0                                           0                   =                       j   &.*.  3 &.*.      ",
"                                    .                         |   ,             = 4 =                   &.U     =.  ^   =.      ",
"                                  . #                               -.            3         h         - ;.  h       }   3       ",
"  >.,.                                                                                    i j             i j ~       ~ '.      ",
"    ).    !.~.                                                                        4       5             3 {.3 ].^.  3       ",
"          /.(.                5                                                       9                               _.:.      ",
"                                                                                                            D D <.<.G M [.      ",
"                                                                                                          D S S D D             ",
"  }.|.                                            G                                                                             ",
"                                              G                                                                             G   ",
"                                                                                                                                ",
"                                    M     .                                                                                     ",
"    $ % 1.                  w   n   o     2.                                                                  2         & *     ",
"    3.4.5.                  0   | 1   / N                                                               2 7 6.7.        ! ~ 8.  ",
"    w 9.).                    0.w z       5                                     a.j                       b.c.|           ~ ;.  ",
"                    d.            1       6                                                 &.                        e.2       ",
"                  . f.            z                                                         g.=.                  h.i.j.        ",
"                                      5                                                                           1 k..         ",
"                                w                                                                                               ",
"                                0                                   .                                                           ",
"                                                                  . #                         &.*.                              ",
"                                                                                                =.                              ",
"                                                                                                    6                     D l.G ",
"                                                                                                                                "};
