/* XPM */
static char * exit_xpm[] = {
"64 64 407 2",
"  	c #70A853",
". 	c #6FA853",
"+ 	c #5D9448",
"@ 	c #6EA652",
"# 	c #63A04B",
"$ 	c #70A852",
"% 	c #6FA851",
"& 	c #769E4F",
"* 	c #808748",
"= 	c #6FA953",
"- 	c #6EA551",
"; 	c #2F6B31",
"> 	c #377335",
", 	c #6FA752",
"' 	c #7FA271",
") 	c #959694",
"! 	c #6EA752",
"~ 	c #71A652",
"{ 	c #669142",
"] 	c #74A151",
"^ 	c #7D8E4A",
"/ 	c #5E9D47",
"( 	c #539741",
"_ 	c #5F9F48",
": 	c #396F35",
"< 	c #477E3C",
"[ 	c #689F4E",
"} 	c #708E45",
"| 	c #6DA651",
"1 	c #6CA550",
"2 	c #71A953",
"3 	c #70A953",
"4 	c #7C904B",
"5 	c #68A34E",
"6 	c #5D9D47",
"7 	c #69A04F",
"8 	c #508841",
"9 	c #86673C",
"0 	c #609E49",
"a 	c #3A7735",
"b 	c #3D7736",
"c 	c #81A174",
"d 	c #6FA753",
"e 	c #6BA350",
"f 	c #689D4E",
"g 	c #7E8E4A",
"h 	c #7A964D",
"i 	c #70A752",
"j 	c #867743",
"k 	c #6CA651",
"l 	c #62994B",
"m 	c #397536",
"n 	c #619F49",
"o 	c #65A14C",
"p 	c #539241",
"q 	c #376D34",
"r 	c #4B7A3E",
"s 	c #589144",
"t 	c #568C44",
"u 	c #538842",
"v 	c #6CA650",
"w 	c #6AA44F",
"x 	c #949892",
"y 	c #7C9D71",
"z 	c #6EA751",
"A 	c #886D3F",
"B 	c #837E45",
"C 	c #537E3D",
"D 	c #60432E",
"E 	c #1B2D11",
"F 	c #383938",
"G 	c #BDBDBD",
"H 	c #B8B8B8",
"I 	c #A9A9A9",
"J 	c #929292",
"K 	c #7F7F7F",
"L 	c #757575",
"M 	c #727272",
"N 	c #6E6E6E",
"O 	c #646464",
"P 	c #515151",
"Q 	c #393939",
"R 	c #1C211A",
"S 	c #28411C",
"T 	c #41632E",
"U 	c #588540",
"V 	c #609147",
"W 	c #699E4E",
"X 	c #5B402B",
"Y 	c #D0956A",
"Z 	c #C08559",
"` 	c #A66D43",
" .	c #8C5934",
"..	c #5A381F",
"+.	c #2D190B",
"@.	c #25130A",
"#.	c #2E211B",
"$.	c #2F2927",
"%.	c #323130",
"&.	c #333333",
"*.	c #3B3B3B",
"=.	c #595959",
"-.	c #7A7A7A",
";.	c #8E8E8E",
">.	c #959595",
",.	c #989898",
"'.	c #9A9A9A",
").	c #9D9D9D",
"!.	c #3E3E3E",
"~.	c #192A10",
"{.	c #5A8942",
"].	c #375627",
"^.	c #233918",
"/.	c #291A10",
"(.	c #D59A6E",
"_.	c #C88D61",
":.	c #C68B5F",
"<.	c #C98E62",
"[.	c #C2875B",
"}.	c #C48A5E",
"|.	c #814F2C",
"1.	c #C9885F",
"2.	c #C28158",
"3.	c #B7764D",
"4.	c #BF7E56",
"5.	c #AF6E46",
"6.	c #B07047",
"7.	c #A26138",
"8.	c #AC6B41",
"9.	c #452815",
"0.	c #95673B",
"a.	c #8F643B",
"b.	c #8D633B",
"c.	c #835A32",
"d.	c #9D6F43",
"e.	c #CA9867",
"f.	c #C49261",
"g.	c #C99767",
"h.	c #432810",
"i.	c #000000",
"j.	c #D4996D",
"k.	c #CA8F63",
"l.	c #B77D52",
"m.	c #C2835B",
"n.	c #CA8960",
"o.	c #C18057",
"p.	c #C8875E",
"q.	c #C6855C",
"r.	c #C5845B",
"s.	c #C3845B",
"t.	c #B48458",
"u.	c #C49262",
"v.	c #C18F5F",
"w.	c #C69464",
"x.	c #BF8D5D",
"y.	c #B38255",
"z.	c #223717",
"A.	c #D1976C",
"B.	c #91562B",
"C.	c #C38259",
"D.	c #C07F56",
"E.	c #8D592A",
"F.	c #D3A171",
"G.	c #C89666",
"H.	c #C29060",
"I.	c #4C2A0B",
"J.	c #527D3C",
"K.	c #4B843E",
"L.	c #55813E",
"M.	c #BD8963",
"N.	c #C58A5E",
"O.	c #C3885C",
"P.	c #C78C60",
"Q.	c #C4895D",
"R.	c #9D6339",
"S.	c #CF8E66",
"T.	c #C7865D",
"U.	c #BA7D54",
"V.	c #BC8B5D",
"W.	c #CA9868",
"X.	c #9A6B40",
"Y.	c #121F0A",
"Z.	c #397334",
"`.	c #5B9846",
" +	c #629F4A",
".+	c #619F4A",
"++	c #5D422F",
"@+	c #CE9367",
"#+	c #C1865A",
"$+	c #BD8357",
"%+	c #AB6F48",
"&+	c #C6855D",
"*+	c #895626",
"=+	c #D7A575",
"-+	c #C08E5E",
";+	c #C59363",
">+	c #542F0D",
",+	c #588641",
"'+	c #020501",
")+	c #905529",
"!+	c #BC7E55",
"~+	c #BB8A5C",
"{+	c #C89767",
"]+	c #95663B",
"^+	c #040A02",
"/+	c #70A753",
"(+	c #15250D",
"_+	c #DAA075",
":+	c #A86E44",
"<+	c #CD8D65",
"[+	c #8C592A",
"}+	c #D09E6E",
"|+	c #C39161",
"1+	c #6E4014",
"2+	c #598741",
"3+	c #476F34",
"4+	c #CF976E",
"5+	c #C18659",
"6+	c #985E36",
"7+	c #744B32",
"8+	c #956446",
"9+	c #BD7D55",
"0+	c #C4845B",
"a+	c #B57A50",
"b+	c #D09F70",
"c+	c #804E22",
"d+	c #759E4F",
"e+	c #609046",
"f+	c #9B7152",
"g+	c #D59B6F",
"h+	c #9D6C48",
"i+	c #6C6C6C",
"j+	c #676767",
"k+	c #999999",
"l+	c #666666",
"m+	c #5C3C28",
"n+	c #C69465",
"o+	c #C49263",
"p+	c #6A3E13",
"q+	c #537E3C",
"r+	c #6BA250",
"s+	c #376D35",
"t+	c #4A823E",
"u+	c #2E1F14",
"v+	c #DEA376",
"w+	c #858585",
"x+	c #2A2A2A",
"y+	c #2C1C12",
"z+	c #9E9E9E",
"A+	c #9C6847",
"B+	c #B1764D",
"C+	c #D9A778",
"D+	c #7B4A1B",
"E+	c #519440",
"F+	c #68A24E",
"G+	c #66A14D",
"H+	c #508B40",
"I+	c #2E6A31",
"J+	c #060F03",
"K+	c #DFA477",
"L+	c #BC8155",
"M+	c #C1C1C1",
"N+	c #686868",
"O+	c #C8865E",
"P+	c #B4734A",
"Q+	c #B17047",
"R+	c #B8764D",
"S+	c #5E5F5F",
"T+	c #8A5727",
"U+	c #CC9A6B",
"V+	c #BE8D5E",
"W+	c #643A11",
"X+	c #4D7638",
"Y+	c #578440",
"Z+	c #DBA175",
"`+	c #DEA377",
" @	c #D09569",
".@	c #CB9064",
"+@	c #78431B",
"@@	c #49352D",
"#@	c #C4C4C4",
"$@	c #7B7B7B",
"%@	c #404040",
"&@	c #464646",
"*@	c #7C7C7C",
"=@	c #ABABAB",
"-@	c #341906",
";@	c #AE744A",
">@	c #C59467",
",@	c #C79565",
"'@	c #7A4819",
")@	c #679B4C",
"!@	c #8D5A32",
"~@	c #A2673B",
"{@	c #A66B3F",
"]@	c #BF855A",
"^@	c #D1966A",
"/@	c #D89E72",
"(@	c #674832",
"_@	c #D39269",
":@	c #AA6941",
"<@	c #9F633D",
"[@	c #231914",
"}@	c #383838",
"|@	c #525252",
"1@	c #2E2D2D",
"2@	c #2D180B",
"3@	c #AC6B42",
"4@	c #8F5D2F",
"5@	c #D19F70",
"6@	c #B78659",
"7@	c #4E7739",
"8@	c #689D4D",
"9@	c #436731",
"0@	c #0A1506",
"a@	c #070301",
"b@	c #54331B",
"c@	c #653E22",
"d@	c #905B34",
"e@	c #37200F",
"f@	c #A16037",
"g@	c #A36239",
"h@	c #A6653C",
"i@	c #AA6A41",
"j@	c #CA8A62",
"k@	c #D4936A",
"l@	c #DE9D74",
"m@	c #6D4A33",
"n@	c #DCAA7A",
"o@	c #CC9A6A",
"p@	c #794717",
"q@	c #030501",
"r@	c #639549",
"s@	c #486F34",
"t@	c #3A5A29",
"u@	c #331B0C",
"v@	c #7E4B2A",
"w@	c #87502D",
"x@	c #9B5D35",
"y@	c #4E331A",
"z@	c #A06E3E",
"A@	c #AB794A",
"B@	c #C18F60",
"C@	c #D8A676",
"D@	c #DDAB7B",
"E@	c #A7784F",
"F@	c #673C12",
"G@	c #5B8A43",
"H@	c #6BA14F",
"I@	c #547F3D",
"J@	c #1D3013",
"K@	c #1C1306",
"L@	c #432C15",
"M@	c #845A32",
"N@	c #99693C",
"O@	c #9C6B3D",
"P@	c #A06F3F",
"Q@	c #A16F3F",
"R@	c #070B02",
"S@	c #747B3D",
"T@	c #857642",
"U@	c #759F50",
"V@	c #5F8F46",
"W@	c #2C461F",
"X@	c #5C8D44",
"Y@	c #71A753",
"Z@	c #857A44",
"`@	c #74A150",
" #	c #71A853",
".#	c #838146",
"+#	c #8B9C85",
"@#	c #869F7C",
"##	c #818647",
"$#	c #65A24B",
"%#	c #7EA36F",
"&#	c #80A173",
"*#	c #7F8446",
"=#	c #7D743D",
"-#	c #808848",
";#	c #6CA551",
">#	c #629756",
",#	c #72A452",
"'#	c #6FA954",
")#	c #7F9979",
"!#	c #69A44E",
"~#	c #6FA852",
"{#	c #64A14C",
"]#	c #5A9849",
"^#	c #969696",
"/#	c #899D82",
"(#	c #62A04A",
"_#	c #60984A",
":#	c #62974B",
"<#	c #71A752",
"[#	c #5D9E46",
"}#	c #67A34D",
"|#	c #76934A",
"1#	c #407838",
"2#	c #427F38",
"3#	c #71A756",
"4#	c #6DA552",
"5#	c #5D9E45",
"6#	c #7F743E",
"7#	c #548C43",
"8#	c #4F8540",
"9#	c #6AA14F",
"0#	c #4F923F",
"                                                                                                                                ",
"                    .                                                                                                           ",
"    + @           . #                   $ %                                                 & *             =                   ",
"    - ; > ,                             ' ) %                                       ,       ! ~           { ]       ^           ",
"    / ( _                                                                         : < [                             }           ",
"                                                                                  | 1                                           ",
"              2     3                                                                                                 4         ",
"5 6           7   @ 8                                                                                                 9         ",
"              0 a b                                 $ c $                                                                       ",
"                                                      1                                                                         ",
"  d e e                                                                                                                         ",
"    f .                                                                                                                         ",
"                                                                                                                                ",
"                                                                                                                                ",
"                                                                      5                       g h               h               ",
"                                                                      6                       |               i j               ",
"    k         l 2 m             n |                                                 3                                           ",
"    o .       p q 1                                                                 r   ,                                       ",
"                                                        k o                         s t u                                       ",
"                                                          .                         , v                                         ",
"                                                                w 0                                                 $ x y       ",
"                  1 z                                                                         A B                     1 |       ",
"                                                C D E F G H I J K L M M N O P Q R S T U V                                       ",
"                                              W X Y Z `  ...+.@.#.$.%.&.*.=.-.;.>.,.'.).!.~.{.].^.                              ",
"                                              /.(._.:.<.[.}.|.1.2.3.4.5.6.7.8.9.0.a.b.c.d.e.f.g.h.                              ",
"                                            i.j.k.Z k.Z k.l.m.n.o.n.p.q.q.r.s.t.u.v.w.u.g.x.g.y.i.                              ",
"                    w                     z.A.k.Z k.Z k.Z B.C.n.C.n.D.n.D.n.E.F.G.g.x.g.G.H.g.I.J.                              ",
"  K.  ,             0                 / L.M.<.N.O.P.N.Q.R.S.n.o.n.T.r.r.1.U.V.W.v.g.x.g.x.g.X.Y.,                       ^       ",
"  n Z.`.                       +o     .+++@+_.#+k.Z <.$+%+C.n.&+n.D.n.D.n.*+=+-+u.g.x.w.;+g.>+,+                        }       ",
"                                      '+j.<.Z k.Z k.Z )+p.n.D.n.T.q.q.n.!+~+G.w.x.{+-+x.g.]+^+/+                                ",
"            n |                   0 (+_+[.Z k.[.k.<.:+<+p.p.2.n.D.n.D.n.[+}+;+g.g.x.g.|+g.1+2+                            j     ",
"    0 |                           3+4+:.<.O.k.O.k.5+6+7+8+9+n.0+q.C.q.a+b+G.-+g.;+G.v.g.c+i.                              d+    ",
"                                e+f+g+:.Z k.[.k.h+i+j+k+k+l+m+D.n.D.n.[+n+g.u.g.v.g.x.o+p+q+              , r+s+                ",
"                  t+            u+v+Z k.[.k.:._.w+x+y+*.j+x+z+A+2.1.B+C+x.u.g.v.g.H.G.D+i.                1 E+F+                ",
"              G+H+I+          J+K+Q._.#+k.#+k.L+M+N+O+P+Q+R+G S+o.n.T+U+G.H.g.-+g.v.V+W+X+4                                     ",
"                v v         Y+Z+`+ @ @<..@[.#++@@@#@$@%@&@*@=@-@n.;@>@x.,@g.w.G.v.g.'@i.  9                                     ",
"                            )@!@~@~@{@]@^@/@(@_@:@<@[@}@|@1@2@3@n.4@5@,@x.g.-+g.w.6@1+7@                                        ",
"                            8@9@0@a@b@c@d@~@e@7.f@f@g@h@i@j@k@l@m@n@o@W.G.x.g.x.g.p@q@                                          ",
"                                        r@s@t@(+i.u@v@w@x@7.7.7.y@z@A@B@n+C+C@D@E@F@G@                      &                   ",
"                                                    - H@I@S J@K@i.L@M@N@O@P@Q@Q@p@R@                        S@~     T@U@        ",
"                w 0                                           0   , 8@V@X+W@i.i.i.X@                      j   Y@Z@  3 Y@Z@      ",
"                                    .                         |   ,             = 4 =                   Y@d+    `@  ^   `@      ",
"                                  . #                                #            3         h         - .#  h       }   3       ",
"  +#@#                                                                                    i j             i j ~       ~ ##      ",
"    $#    %#&#                                                                        4       5             3 *#3 =#-#  3       ",
"          ;#>#                5                                                       9                               ,#/+      ",
"                                                                                                                       +'#      ",
"                                                                                                                                ",
"  )#!#                                                                                                                          ",
"                                                                                                                                ",
"                                                                                                                                ",
"                                     +    .                                                                                     ",
"    $ % ~#                  w   n   o     {#                                                                  2         & *     ",
"    ]#^#/#                  0   | 1   / (#                                                              2 7 _#:#        ! ~ <#  ",
"    w [#$#                    }#w z       5                                     |#j                       1#2#|           ~ .#  ",
"                    3#            1       6                                                 Y@                        4#2       ",
"                  . 5#            z                                                         6#`@                  7#8#9#        ",
"                                      5                                                                           1 0#.         ",
"                                w                                                                                               ",
"                                0                                   .                                                           ",
"                                                                  . #                         Y@Z@                              ",
"                                                                                                `@                              ",
"                                                                                                    6                           ",
"                                                                                                                                "};
