/* XPM */
static char * exit2_xpm[] = {
"64 64 196 2",
"  	c #70A853",
". 	c #6FA853",
"+ 	c #5D9448",
"@ 	c #6EA652",
"# 	c #63A04B",
"$ 	c #70A852",
"% 	c #6FA851",
"& 	c #769E4F",
"* 	c #808748",
"= 	c #6FA953",
"- 	c #6EA551",
"; 	c #2F6B31",
"> 	c #377335",
", 	c #6FA752",
"' 	c #7FA271",
") 	c #959694",
"! 	c #6EA752",
"~ 	c #71A652",
"{ 	c #669142",
"] 	c #74A151",
"^ 	c #7D8E4A",
"/ 	c #5E9D47",
"( 	c #539741",
"_ 	c #5F9F48",
": 	c #396F35",
"< 	c #477E3C",
"[ 	c #689F4E",
"} 	c #708E45",
"| 	c #6DA651",
"1 	c #6CA550",
"2 	c #71A953",
"3 	c #70A953",
"4 	c #7C904B",
"5 	c #68A34E",
"6 	c #5D9D47",
"7 	c #69A04F",
"8 	c #508841",
"9 	c #86673C",
"0 	c #609E49",
"a 	c #3A7735",
"b 	c #3D7736",
"c 	c #81A174",
"d 	c #6FA753",
"e 	c #6BA350",
"f 	c #689D4E",
"g 	c #000000",
"h 	c #CA8F63",
"i 	c #BB8054",
"j 	c #B4794D",
"k 	c #B4734A",
"l 	c #BB7A51",
"m 	c #C28158",
"n 	c #CA8960",
"o 	c #C99767",
"p 	c #B1764A",
"q 	c #AA6F43",
"r 	c #B17047",
"s 	c #AA6940",
"t 	c #BA8858",
"u 	c #A97747",
"v 	c #794717",
"w 	c #7A964D",
"x 	c #B07E4E",
"y 	c #70A752",
"z 	c #867743",
"A 	c #6CA651",
"B 	c #62994B",
"C 	c #397536",
"D 	c #619F49",
"E 	c #65A14C",
"F 	c #539241",
"G 	c #376D34",
"H 	c #8C592A",
"I 	c #949892",
"J 	c #7C9D71",
"K 	c #6EA751",
"L 	c #6AA44F",
"M 	c #4B843E",
"N 	c #397334",
"O 	c #5B9846",
"P 	c #629F4A",
"Q 	c #62A04A",
"R 	c #629448",
"S 	c #AE7C4C",
"T 	c #AB7044",
"U 	c #759E4F",
"V 	c #B58353",
"W 	c #6BA250",
"X 	c #376D35",
"Y 	c #4A823E",
"Z 	c #6E462C",
"` 	c #AC7A4A",
" .	c #519440",
"..	c #68A24E",
"+.	c #66A14D",
"@.	c #508B40",
"#.	c #2E6A31",
"$.	c #6D6441",
"%.	c #7C7350",
"&.	c #6CA650",
"*.	c #585238",
"=.	c #746B48",
"-.	c #494329",
";.	c #383425",
">.	c #44402D",
",.	c #423D2B",
"'.	c #588540",
").	c #45402D",
"!.	c #443F2C",
"~.	c #423E2B",
"{.	c #413C2A",
"].	c #403B2A",
"^.	c #3E3A29",
"/.	c #3D3928",
"(.	c #3C3727",
"_.	c #3A3626",
":.	c #393525",
"<.	c #47422E",
"[.	c #433E2C",
"}.	c #413D2B",
"|.	c #403C2A",
"1.	c #3F3A29",
"2.	c #3C3827",
"3.	c #3B3727",
"4.	c #3A3526",
"5.	c #1F1D14",
"6.	c #48432F",
"7.	c #46412D",
"8.	c #3F3B29",
"9.	c #3D3828",
"0.	c #B1A491",
"a.	c #747B3D",
"b.	c #857642",
"c.	c #759F50",
"d.	c #46412E",
"e.	c #3B3626",
"f.	c #C5B8A5",
"g.	c #A79A87",
"h.	c #756855",
"i.	c #938673",
"j.	c #4C7538",
"k.	c #71A753",
"l.	c #857A44",
"m.	c #1F1D11",
"n.	c #45412D",
"o.	c #D9CCB9",
"p.	c #897C69",
"q.	c #74A150",
"r.	c #4D7F3A",
"s.	c #433F2C",
"t.	c #BBAE9B",
"u.	c #838146",
"v.	c #8B9C85",
"w.	c #869F7C",
"x.	c #818647",
"y.	c #65A24B",
"z.	c #7EA36F",
"A.	c #80A173",
"B.	c #EDE0CD",
"C.	c #9D907D",
"D.	c #7F8446",
"E.	c #7D743D",
"F.	c #808848",
"G.	c #6CA551",
"H.	c #629756",
"I.	c #CFC2AF",
"J.	c #443F36",
"K.	c #72A452",
"L.	c #70A753",
"M.	c #6FA954",
"N.	c #181610",
"O.	c #7F9979",
"P.	c #69A44E",
"Q.	c #466B33",
"R.	c #5E8E45",
"S.	c #6FA852",
"T.	c #64A14C",
"U.	c #5A9849",
"V.	c #969696",
"W.	c #899D82",
"X.	c #60984A",
"Y.	c #62974B",
"Z.	c #71A752",
"`.	c #5D9E46",
" +	c #67A34D",
".+	c #76934A",
"++	c #407838",
"@+	c #427F38",
"#+	c #71A756",
"$+	c #6DA552",
"%+	c #5D9E45",
"&+	c #7F743E",
"*+	c #548C43",
"=+	c #4F8540",
"-+	c #6AA14F",
";+	c #4F923F",
"                                                                                                                                ",
"                    .                                                                                                           ",
"    + @           . #                   $ %                                                 & *             =                   ",
"    - ; > ,                             ' ) %                                       ,       ! ~           { ]       ^           ",
"    / ( _                                                                         : < [                             }           ",
"                                                                                  | 1                                           ",
"              2     3                                                                                                 4         ",
"5 6           7   @ 8                                                                                                 9         ",
"              0 a b                                 $ c $                                                                       ",
"                                                      1                                                                         ",
"  d e e                                                                                                                         ",
"    f .                                                                                                                         ",
"                                                    g h h h h g g g g g g g g g g                                               ",
"                                                    i i j i i j i k l k l l m n n g o o o o o o o                               ",
"                                                    i p q p p q p l r s r r r r r t u t t u t t v               w               ",
"                                                    i q q p p q p l r s r r r r r t u x x u x x v             y z               ",
"    A         B 2 C             D |                 i q q p p q p l r s r r r r r t u x x u x x v                               ",
"    E .       F G 1                                 i q q p p q p l r s r r r r r t u x x u x x v                               ",
"                                                    i q q p p q p l r s r r r r H t u x x u x u v                               ",
"                                                    i q q p p q p l r s r r r r H t u x x u x u v                               ",
"                                                    i q q q p q p l r s r r r r H t u x x u x u v                   $ I J       ",
"                  1 K                               i q q q p q p l r s r r r r H t u x x u x u v                     1 |       ",
"                                                    i q q q p q p l r s r r r r H t u x x u x u v                               ",
"                                                    i q q q p q p l r s r r r r H t u x x u x x v                               ",
"                                                    i q q q p q p l r s r r r r H t u x x u x x v                               ",
"                                                    i p q q p q p l r s r r r r H t u x x u x x v                               ",
"                    L                               i p q q p q p l r s r r r r H t u x x u x x v                               ",
"  M   ,             0                 /             i p q q p q p l r s r r s r H t u x x u x x v                       ^       ",
"  D N O                       P E     Q           R i p q q p q p l r s r r s r H t u x x u x S v                       }       ",
"                                                  g i p q q p q p l r s r r s r H t u x x u x u v                               ",
"            D |                   0               g i p q q p T p l r s r r s r H t u x x u x u v                         z     ",
"    0 |                           |               g i p q q p p p l r r r r s r H t u x x u x u v                         U     ",
"                                                  g i p q p p p p l r r r r s r H V u x x u x u v         , W X                 ",
"                  Y                               g g g g g g g g g Z r r r s r H x ` x x u x ` g         1  ...                ",
"              +.@.#.                            g g $.%.%.%.%.%.%.%.%.%.%.%.%.%.%.g g g g g g g                                 ",
"                &.&.                      5     *.g g g g g g g g g $.$.$.$.$.$.$.$.$.$.=.%.%.g                                 ",
"                                              g -.;.>.,.;.;.;.;.;.;.;.;.;.;.;.;.g g g g g g g '.                                ",
"                                            g *.g ;.).!.~.{.].^./.(._.:.;.;.;.;.;.;.;.;.;.;.g                                   ",
"                                          '.*.g ;.<.).!.[.}.|.1./.2.3.4.;.;.;.;.;.;.;.;.;.;.'.              &                   ",
"                                          g -.5.6.<.7.>.[.,.{.8.^.9.3._.:.;.g g ;.;.g 0.g g                 a.~     b.c.        ",
"                L 0                     g *.g ;.6.6.d.).!.~.{.g ^./.2.e.g f.g.f.f.g g h.i.j.              z   k.l.  3 k.l.      ",
"                                    . '.*.m.;.6.6.6.<.n.!.[.g o.o.g g g i.p.p.g.g.g.f.f.g               k.U     q.  ^   q.      ",
"                                  . r.g -.g 6.6.6.6.<.d.).s.o.t.t.t.o.o.o.g g g p.p.p.g.g   w         - u.  w       }   3       ",
"  v.w.                              '.*.g ;.6.g g 6.6.d.).g.o.t.t.t.t.t.t.t.o.o.o.g g g   y z             y z ~       ~ x.      ",
"    y.    z.A.                    '.g -.;.6.g B.B.B.g g g g C.C.C.C.C.t.t.t.t.t.t.t.o.g       5             3 D.3 E.F.  3       ",
"          G.H.                5 '.g -.g ;.g B.I.I.I.I.I.B.B.B.g g g J.C.C.C.C.t.t.t.g 9                               K.L.      ",
"                              '.'.*.g ;.g B.B.I.I.I.I.I.I.I.I.I.I.B.B.B.g g g C.C.C.g                                 P M.      ",
"                            '.'.g g N.6.g t.0.0.0.0.I.I.I.I.I.I.I.I.I.I.I.B.B.B.g g                                             ",
"  O.P.                                  '.Q.g g g g 0.0.0.0.0.0.0.I.I.I.I.I.I.I.I.g                                             ",
"                                                      '.'.g g g g 0.0.0.0.0.0.I.g                                               ",
"                                                                      '.'.g g g R.                                              ",
"                                    P     .                                                                                     ",
"    $ % S.                  L   D   E     T.                                                                  2         & *     ",
"    U.V.W.                  0   | 1   / Q                                                               2 7 X.Y.        ! ~ Z.  ",
"    L `.y.                     +L K       5                                     .+z                       ++@+|           ~ u.  ",
"                    #+            1       6                                                 k.                        $+2       ",
"                  . %+            K                                                         &+q.                  *+=+-+        ",
"                                      5                                                                           1 ;+.         ",
"                                L                                                                                               ",
"                                0                                   .                                                           ",
"                                                                  . #                         k.l.                              ",
"                                                                                                q.                              ",
"                                                                                                    6                           ",
"                                                                                                                                "};
