/* XPM */
static char * floor2_xpm[] = {
"48 48 140 2",
"  	c #70A853",
". 	c #6FA752",
"+ 	c #6EA752",
"@ 	c #72A451",
"# 	c #70A753",
"$ 	c #6EA652",
"% 	c #4F8540",
"& 	c #62994B",
"* 	c #6DA551",
"= 	c #7AA467",
"- 	c #849F7A",
"; 	c #70A852",
"> 	c #79934B",
", 	c #7A8E49",
"' 	c #72A552",
") 	c #71A753",
"! 	c #73A251",
"~ 	c #5B9746",
"{ 	c #5A9246",
"] 	c #6DA652",
"^ 	c #6AA350",
"/ 	c #6DA651",
"( 	c #589145",
"_ 	c #5F9649",
": 	c #71A451",
"< 	c #77984D",
"[ 	c #6FA853",
"} 	c #6CA550",
"| 	c #6CA650",
"1 	c #6CA350",
"2 	c #6BA350",
"3 	c #679F4E",
"4 	c #6CA451",
"5 	c #78934A",
"6 	c #74A150",
"7 	c #518941",
"8 	c #548F43",
"9 	c #74A460",
"0 	c #72A65A",
"a 	c #6FA753",
"b 	c #6FA654",
"c 	c #679F4D",
"d 	c #639A4B",
"e 	c #69A44F",
"f 	c #71A14F",
"g 	c #78984E",
"h 	c #6AA150",
"i 	c #6AA14F",
"j 	c #659C4D",
"k 	c #6CA651",
"l 	c #6AA34F",
"m 	c #518A40",
"n 	c #649A4C",
"o 	c #679D4D",
"p 	c #5A9446",
"q 	c #6BA550",
"r 	c #78A267",
"s 	c #72A160",
"t 	c #729E4E",
"u 	c #79954C",
"v 	c #669E4D",
"w 	c #5D9647",
"x 	c #528B41",
"y 	c #74A55E",
"z 	c #79A565",
"A 	c #77974C",
"B 	c #70A655",
"C 	c #70A458",
"D 	c #72A452",
"E 	c #6BA450",
"F 	c #70A551",
"G 	c #7A944B",
"H 	c #62984B",
"I 	c #5B9147",
"J 	c #5C9147",
"K 	c #6AA44F",
"L 	c #67A04D",
"M 	c #639D4B",
"N 	c #568E43",
"O 	c #619A4A",
"P 	c #7C8F4A",
"Q 	c #71A351",
"R 	c #79944B",
"S 	c #71A552",
"T 	c #7A944C",
"U 	c #70A652",
"V 	c #72A150",
"W 	c #68A34E",
"X 	c #70A451",
"Y 	c #7B8F4A",
"Z 	c #779A4E",
"` 	c #72A351",
" .	c #7BA369",
"..	c #72A758",
"+.	c #75994D",
"@.	c #769D4F",
"#.	c #749C4E",
"$.	c #75994C",
"%.	c #70A752",
"&.	c #7A954C",
"*.	c #72A15E",
"=.	c #71A657",
"-.	c #7BA36B",
";.	c #77A561",
">.	c #75A050",
",.	c #74A151",
"'.	c #7B8E49",
").	c #72A04F",
"!.	c #6FA359",
"~.	c #70A557",
"{.	c #749B4D",
"].	c #749F4F",
"^.	c #79964D",
"/.	c #74A262",
"(.	c #6FA852",
"_.	c #70A854",
":.	c #76A65F",
"<.	c #74A65C",
"[.	c #6EA751",
"}.	c #749E4F",
"|.	c #7E9878",
"1.	c #839E79",
"2.	c #5F9749",
"3.	c #588E45",
"4.	c #759F4F",
"5.	c #74A251",
"6.	c #6DA750",
"7.	c #69A34E",
"8.	c #71A250",
"9.	c #6DA751",
"0.	c #659F4C",
"a.	c #6AA450",
"b.	c #6CA450",
"c.	c #73A351",
"d.	c #73A35F",
"e.	c #73A45D",
"f.	c #5C9347",
"g.	c #548B42",
"h.	c #67A24D",
"i.	c #69A34F",
"                                                                                                ",
"    .         + +                                                     @         #               ",
"  $ % & *     + +             = - ;                                 # >         , '   ) !       ",
"  + ~ {                       ] ^                           / ( _               #     : <       ",
"      [                                                       } $                       #       ",
"/ |       1 2 3 4                                                                       5 6     ",
". .       / 7 8                         9 0                                             #       ",
"  a $       [ [                         b a                                                     ",
"  c d                                                                                           ",
"                                                                                                ",
"                                                                      ) '           #           ",
"                                                    e /               f g         # , #         ",
"  [ /     h i j         e +                                   * .                   #           ",
"  [ k     l m 4                           [ [                 i n o                             ",
"                                          / k                 / p d                             ",
"              k [                               } q                     '               r s     ",
"              q                                                       t u               b /     ",
"                                                                                                ",
"                                                                                                ",
"                                                                                                ",
"  v           q }           /                                                             ! )   ",
"  w x                 / e   q /                             y z                           A '   ",
"    [   [ k               .                                 B C                             D   ",
"  . E   [ /             . e                                                               F G   ",
"    +         $                             e .                                 H I 2           ",
"          a d J                         K / .                       #           L M             ",
"          / N O               . K       .                         F P                           ",
"                                /                                   #                           ",
"                                                                                  #             ",
"                                                                                Q R   D g       ",
"            } q                               E +             '               S T # R U V R #   ",
"                          + +                 .   W .       X Y             . Z `   Q ` T Q     ",
"   ...                    + +                     .                 +.@.    . #.$.@.  %.S &.#   ",
"  *.=.  -.;.          .                                         >.D   +           > ,.'.' ).    ",
"        !.~.          K /                                       {.'               #   # ].^.    ",
"                                                                                        . '     ",
"  /..                                                                                           ",
"  (.                                                                                            ",
"                          . .                                                                   ",
"  _.:.<.            + + e | / [.W                                                 4       }.@.  ",
"  / |.1.            + / e q / K [                           ! ,.              * 2.3.      U 4.5.",
"    | 6.      _._.    + 7.+   . W                           8.!           9.    0.a.    a b.).c.",
"              d.e.      / | .                                       @ R               f.g.a     ",
"                            K /                                       #               h.i.      ",
"                        W                                                                       ",
"                                                  q }                   R #                     ",
"                                                                        Q [ .                   ",
"                                                                          [ +                   "};
