/* XPM */
static char * floor_xpm[] = {
"64 64 129 2",
"  	c #70A853",
". 	c #6FA853",
"+ 	c #5D9448",
"@ 	c #6EA652",
"# 	c #63A04B",
"$ 	c #70A852",
"% 	c #6FA851",
"& 	c #769E4F",
"* 	c #808748",
"= 	c #6FA953",
"- 	c #6EA551",
"; 	c #2F6B31",
"> 	c #377335",
", 	c #6FA752",
"' 	c #7FA271",
") 	c #959694",
"! 	c #6EA752",
"~ 	c #71A652",
"{ 	c #669142",
"] 	c #74A151",
"^ 	c #7D8E4A",
"/ 	c #5E9D47",
"( 	c #539741",
"_ 	c #5F9F48",
": 	c #396F35",
"< 	c #477E3C",
"[ 	c #689F4E",
"} 	c #708E45",
"| 	c #6DA651",
"1 	c #6CA550",
"2 	c #71A953",
"3 	c #70A953",
"4 	c #7C904B",
"5 	c #68A34E",
"6 	c #5D9D47",
"7 	c #69A04F",
"8 	c #508841",
"9 	c #86673C",
"0 	c #609E49",
"a 	c #3A7735",
"b 	c #3D7736",
"c 	c #81A174",
"d 	c #6FA753",
"e 	c #6BA350",
"f 	c #689D4E",
"g 	c #7E8E4A",
"h 	c #7A964D",
"i 	c #70A752",
"j 	c #867743",
"k 	c #6CA651",
"l 	c #62994B",
"m 	c #397536",
"n 	c #619F49",
"o 	c #65A14C",
"p 	c #539241",
"q 	c #376D34",
"r 	c #4B7A3E",
"s 	c #589144",
"t 	c #568C44",
"u 	c #538842",
"v 	c #6CA650",
"w 	c #6AA44F",
"x 	c #949892",
"y 	c #7C9D71",
"z 	c #6EA751",
"A 	c #886D3F",
"B 	c #837E45",
"C 	c #4B843E",
"D 	c #397334",
"E 	c #5B9846",
"F 	c #629F4A",
"G 	c #62A04A",
"H 	c #77A661",
"I 	c #80A271",
"J 	c #629856",
"K 	c #759E4F",
"L 	c #67A34D",
"M 	c #6BA250",
"N 	c #376D35",
"O 	c #4A823E",
"P 	c #519440",
"Q 	c #68A24E",
"R 	c #66A14D",
"S 	c #508B40",
"T 	c #2E6A31",
"U 	c #747B3D",
"V 	c #857642",
"W 	c #759F50",
"X 	c #71A753",
"Y 	c #857A44",
"Z 	c #74A150",
"` 	c #71A853",
" .	c #838146",
"..	c #8B9C85",
"+.	c #869F7C",
"@.	c #818647",
"#.	c #65A24B",
"$.	c #7EA36F",
"%.	c #80A173",
"&.	c #7F8446",
"*.	c #7D743D",
"=.	c #808848",
"-.	c #6CA551",
";.	c #629756",
">.	c #72A452",
",.	c #70A753",
"'.	c #6FA954",
").	c #7F9979",
"!.	c #69A44E",
"~.	c #6FA852",
"{.	c #64A14C",
"].	c #5A9849",
"^.	c #969696",
"/.	c #899D82",
"(.	c #60984A",
"_.	c #62974B",
":.	c #71A752",
"<.	c #5D9E46",
"[.	c #76934A",
"}.	c #407838",
"|.	c #427F38",
"1.	c #71A756",
"2.	c #6DA552",
"3.	c #5D9E45",
"4.	c #7F743E",
"5.	c #548C43",
"6.	c #4F8540",
"7.	c #6AA14F",
"8.	c #4F923F",
"                                                                                                                                ",
"                    .                                                                                                           ",
"    + @           . #                   $ %                                                 & *             =                   ",
"    - ; > ,                             ' ) %                                       ,       ! ~           { ]       ^           ",
"    / ( _                                                                         : < [                             }           ",
"                                                                                  | 1                                           ",
"              2     3                                                                                                 4         ",
"5 6           7   @ 8                                                                                                 9         ",
"              0 a b                                 $ c $                                                                       ",
"                                                      1                                                                         ",
"  d e e                                                                                                                         ",
"    f .                                                                                                                         ",
"                                                                                                                                ",
"                                                                                                                                ",
"                                                                      5                       g h               h               ",
"                                                                      6                       |               i j               ",
"    k         l 2 m             n |                                                 3                                           ",
"    o .       p q 1                                                                 r   ,                                       ",
"                                                        k o                         s t u                                       ",
"                                                          .                         , v                                         ",
"                                                                w 0                                                 $ x y       ",
"                  1 z                                                                         A B                     1 |       ",
"                                                                                                                                ",
"                                                                                                                                ",
"                                                                                                                                ",
"                                                                                                                                ",
"                    w                                                                                                           ",
"  C   ,             0                 /                                                                                 ^       ",
"  n D E                       F o     G                                         H I                                     }       ",
"                                                                                , J                                             ",
"            n |                   0                                                                                       j     ",
"    0 |                           |                                                                                       K     ",
"                                                          L w                                             , M N                 ",
"                  O                                   /                                                   1 P Q                 ",
"              R S T                                   G                                   4                                     ",
"                v v                       5                                               9                                     ",
"                                                                                                                                ",
"                                                                                                                                ",
"                                                                                                            &                   ",
"                                                                                                            U ~     V W         ",
"                w 0                                           0                   =                       j   X Y   3 X Y       ",
"                                    .                         |   ,             = 4 =                   X K     Z   ^   Z       ",
"                                  . #                               `             3         h         -  .  h       }   3       ",
"  ..+.                                                                                    i j             i j ~       ~ @.      ",
"    #.    $.%.                                                                        4       5             3 &.3 *.=.  3       ",
"          -.;.                5                                                       9                               >.,.      ",
"                                                                                                                      F '.      ",
"                                                                                                                                ",
"  ).!.                                                                                                                          ",
"                                                                                                                                ",
"                                                                                                                                ",
"                                    F     .                                                                                     ",
"    $ % ~.                  w   n   o     {.                                                                  2         & *     ",
"    ].^./.                  0   | 1   / G                                                               2 7 (._.        ! ~ :.  ",
"    w <.#.                    L w z       5                                     [.j                       }.|.|           ~  .  ",
"                    1.            1       6                                                 X                         2.2       ",
"                  . 3.            z                                                         4.Z                   5.6.7.        ",
"                                      5                                                                           1 8..         ",
"                                w                                                                                               ",
"                                0                                   .                                                           ",
"                                                                  . #                         X Y                               ",
"                                                                                                Z                               ",
"                                                                                                    6                           ",
"                                                                                                                                "};
