/* XPM */
static char * gold_1_xpm[] = {
"64 64 31 1",
" 	c #70A853",
".	c #2E6D31",
"+	c #969696",
"@	c #529740",
"#	c #933333",
"$	c #1F492B",
"%	c #FFDD00",
"&	c #FFDC00",
"*	c #FFCE00",
"=	c #FFFF00",
"-	c #FFE300",
";	c #EBC900",
">	c #FFFFFF",
",	c #BD9D00",
"'	c #A07200",
")	c #ECBC00",
"!	c #E2B200",
"~	c #D9C700",
"{	c #D5A500",
"]	c #D9A900",
"^	c #CA9B00",
"/	c #B68700",
"(	c #BB8C00",
"_	c #B28300",
":	c #ECE300",
"<	c #D5C000",
"[	c #DDAD00",
"}	c #C79800",
"|	c #A37500",
"1	c #B58700",
"2	c #C49500",
"                                                                ",
"                                                                ",
"                                                                ",
"   ..                +                               @          ",
"  @@@                                    ..               @     ",
"                                                                ",
"                                                                ",
" @        .                                                #    ",
"       @.$                                                      ",
"                                                                ",
"                                                                ",
"                                                                ",
"                                                                ",
"                                                                ",
"                                                                ",
"                                   @                    #       ",
"         .      @                                               ",
"       @.                                 $                     ",
"                                            $                   ",
"                                                                ",
"                                 @                         ++   ",
"                             %%%&*             ##               ",
"                           %%====-***                           ",
"                         ;%>%%,,,'***)                          ",
"                        ;%%,,%====*'*))                         ",
"                       !%%,%>==%~***'{{)                        ",
"                       !%,%==%%=]****){{{                       ",
" .        @        @  !!'%=%%%>*]****)'{{                       ",
" @$@           @@  @  {*'=*%%']*]***)))'{^                  @   ",
"                     {/(*=**']'*]**))))'{^                      ",
"      @          @   {/'=*******]*))))){_^                   #  ",
"  @                  {/':)******]))))))^_^                      ",
"                     {/'<))))))*])))))[^_^             .        ",
"         .           ^/'{))))))*])))[[['_^            @         ",
"        @.            }_{{)))))*])[[[[^'_^                      ",
"                      ^_'^{))))*][[[[^^__^   #                  ",
"                      ^__|^^^[[*][[^^^'_^                       ",
"                       ^__}^^^^*]^^^^'__^                       ",
"                        ^__'^^^]]^^^'__^                        ",
"                         ^__''1^^''___^               @   #     ",
"         @                ^_________2^               #  #   #   ",
"                            ^^___^^^                            ",
"                                                          @     ",
" ++                                           #       #         ",
"  @                                                      ##     ",
"      @                                    #                    ",
"                                                           @    ",
"                                                                ",
" +                                                              ",
"                                                                ",
"                                                                ",
"                  @                                             ",
"                @ @                                             ",
"  @++         @    @@                                           ",
"   @@                                    #           $$         ",
"                     @                                          ",
"          @                                   #          .      ",
"                                                          @     ",
"                                                                ",
"                @                                               ",
"                                                #               ",
"                                                                ",
"                                                  @             ",
"                                                                "};
