/* XPM */
static char * player_xpm[] = {
"64 64 136 2",
"  	c #70A853",
". 	c #6FA853",
"+ 	c #5D9448",
"@ 	c #6EA652",
"# 	c #63A04B",
"$ 	c #70A852",
"% 	c #6FA851",
"& 	c #769E4F",
"* 	c #808748",
"= 	c #6FA953",
"- 	c #6EA551",
"; 	c #2F6B31",
"> 	c #377335",
", 	c #6FA752",
"' 	c #7FA271",
") 	c #959694",
"! 	c #6EA752",
"~ 	c #71A652",
"{ 	c #669142",
"] 	c #74A151",
"^ 	c #7D8E4A",
"/ 	c #5E9D47",
"( 	c #539741",
"_ 	c #5F9F48",
": 	c #396F35",
"< 	c #477E3C",
"[ 	c #689F4E",
"} 	c #708E45",
"| 	c #6DA651",
"1 	c #6CA550",
"2 	c #71A953",
"3 	c #70A953",
"4 	c #7C904B",
"5 	c #68A34E",
"6 	c #5D9D47",
"7 	c #69A04F",
"8 	c #508841",
"9 	c #86673C",
"0 	c #609E49",
"a 	c #3A7735",
"b 	c #3D7736",
"c 	c #81A174",
"d 	c #6FA753",
"e 	c #6BA350",
"f 	c #689D4E",
"g 	c #000000",
"h 	c #C1967D",
"i 	c #7E8E4A",
"j 	c #7A964D",
"k 	c #EEC39A",
"l 	c #70A752",
"m 	c #867743",
"n 	c #6CA651",
"o 	c #62994B",
"p 	c #397536",
"q 	c #619F49",
"r 	c #65A14C",
"s 	c #539241",
"t 	c #376D34",
"u 	c #4B7A3E",
"v 	c #589144",
"w 	c #568C44",
"x 	c #538842",
"y 	c #6CA650",
"z 	c #6AA44F",
"A 	c #949892",
"B 	c #7C9D71",
"C 	c #6EA751",
"D 	c #293220",
"E 	c #886D3F",
"F 	c #837E45",
"G 	c #323C1F",
"H 	c #4B843E",
"I 	c #397334",
"J 	c #5B9846",
"K 	c #629F4A",
"L 	c #62A04A",
"M 	c #77A661",
"N 	c #80A271",
"O 	c #629856",
"P 	c #759E4F",
"Q 	c #6BA250",
"R 	c #376D35",
"S 	c #4A823E",
"T 	c #519440",
"U 	c #68A24E",
"V 	c #66A14D",
"W 	c #508B40",
"X 	c #2E6A31",
"Y 	c #472A25",
"Z 	c #512C2A",
"` 	c #747B3D",
" .	c #857642",
"..	c #759F50",
"+.	c #71A753",
"@.	c #857A44",
"#.	c #74A150",
"$.	c #71A853",
"%.	c #838146",
"&.	c #8B9C85",
"*.	c #869F7C",
"=.	c #818647",
"-.	c #65A24B",
";.	c #7EA36F",
">.	c #80A173",
",.	c #7F8446",
"'.	c #7D743D",
").	c #808848",
"!.	c #6CA551",
"~.	c #629756",
"{.	c #72A452",
"].	c #70A753",
"^.	c #6FA954",
"/.	c #7F9979",
"(.	c #69A44E",
"_.	c #6FA852",
":.	c #64A14C",
"<.	c #5A9849",
"[.	c #969696",
"}.	c #899D82",
"|.	c #60984A",
"1.	c #62974B",
"2.	c #71A752",
"3.	c #5D9E46",
"4.	c #67A34D",
"5.	c #76934A",
"6.	c #407838",
"7.	c #427F38",
"8.	c #71A756",
"9.	c #6DA552",
"0.	c #5D9E45",
"a.	c #7F743E",
"b.	c #548C43",
"c.	c #4F8540",
"d.	c #6AA14F",
"e.	c #4F923F",
"                                                                                                                                ",
"                    .                                                                                                           ",
"    + @           . #                   $ %                                                 & *             =                   ",
"    - ; > ,                             ' ) %                                       ,       ! ~           { ]       ^           ",
"    / ( _                                                                         : < [                             }           ",
"                                                                                  | 1                                           ",
"              2     3                                                                                                 4         ",
"5 6           7   @ 8                                                                                                 9         ",
"              0 a b                                 $ c $                                                                       ",
"                                                      1                                                                         ",
"  d e e                                                                                                                         ",
"    f .                                                                                                                         ",
"                                                                                                                                ",
"                                                          g g g g                                                               ",
"                                                          g g g h     5                       i j               j               ",
"                                                          g g k k     6                       |               l m               ",
"    n         o 2 p             q |                       g g k k                   3                                           ",
"    r .       s t 1                                       k k k k                   u   ,                                       ",
"                                                        n k k                       v w x                                       ",
"                                                          k k                       , y                                         ",
"                                                          k k   z 0                                                 $ A B       ",
"                  1 C                                 D D D D D D                             E F                     1 |       ",
"                                                  D D G G G G G G D D                                                           ",
"                                                D G G G G G G G G G G D                                                         ",
"                                                D G G G G G G G G G G D                                                         ",
"                                                D G G G G G G G G G G D                                                         ",
"                    z                           h D D G G G G G G D D h                                                         ",
"  H   ,             0                 /         h     G G G G G G     h                                                 ^       ",
"  q I J                       K r     L         h     G G G G G G     h         M N                                     }       ",
"                                                k     G G G G G G     k         , O                                             ",
"            q |                   0             k     D G G G G D     k                                                   m     ",
"    0 |                           |             k     D D G G D D     k                                                   P     ",
"                                                k     D D G G D D     k                                   , Q R                 ",
"                  S                             k     D D D D D D     k                                   1 T U                 ",
"              V W X                             k     Y Y Y Y Y Y     k                   4                                     ",
"                y y                       5     k     Y Y     Y Y                         9                                     ",
"                                                k     Y Y     Y Y                                                               ",
"                                                      Y Y     Y Y                                                               ",
"                                                      Y Z     Y Y                                           &                   ",
"                                                      Z       Z Y                                           ` ~      ...        ",
"                z 0                                   Z       Z Y                 =                       m   +.@.  3 +.@.      ",
"                                    .                 k       | Z ,             = 4 =                   +.P     #.  ^   #.      ",
"                                  . #                 k         k   $.            3         j         - %.  j       }   3       ",
"  &.*.                                                g         g                         l m             l m ~       ~ =.      ",
"    -.    ;.>.                                        g         g                     4       5             3 ,.3 '.).  3       ",
"          !.~.                5                       g         g                     9                               {.].      ",
"                                                      g g       g g g                                                 K ^.      ",
"                                                                                                                                ",
"  /.(.                                                                                                                          ",
"                                                                                                                                ",
"                                                                                                                                ",
"                                    K     .                                                                                     ",
"    $ % _.                  z   q   r     :.                                                                  2         & *     ",
"    <.[.}.                  0   | 1   / L                                                               2 7 |.1.        ! ~ 2.  ",
"    z 3.-.                    4.z C       5                                     5.m                       6.7.|           ~ %.  ",
"                    8.            1       6                                                 +.                        9.2       ",
"                  . 0.            C                                                         a.#.                  b.c.d.        ",
"                                      5                                                                           1 e..         ",
"                                z                                                                                               ",
"                                0                                   .                                                           ",
"                                                                  . #                         +.@.                              ",
"                                                                                                #.                              ",
"                                                                                                    6                           ",
"                                                                                                                                "};
