/* XPM */
static char * tree2_xpm[] = {
"48 48 400 2",
"  	c #70A853",
". 	c #6FA752",
"+ 	c #6EA752",
"@ 	c #72A451",
"# 	c #70A753",
"$ 	c #6EA652",
"% 	c #4F8540",
"& 	c #62994B",
"* 	c #6DA551",
"= 	c #7AA467",
"- 	c #849F7A",
"; 	c #70A852",
"> 	c #79934B",
", 	c #7A8E49",
"' 	c #72A552",
") 	c #71A753",
"! 	c #73A251",
"~ 	c #5B9746",
"{ 	c #5A9246",
"] 	c #6DA652",
"^ 	c #6AA350",
"/ 	c #6DA651",
"( 	c #589145",
"_ 	c #5F9649",
": 	c #71A451",
"< 	c #77984D",
"[ 	c #6FA853",
"} 	c #6CA550",
"| 	c #6CA650",
"1 	c #6CA350",
"2 	c #6BA350",
"3 	c #679F4E",
"4 	c #6CA451",
"5 	c #78934A",
"6 	c #74A150",
"7 	c #518941",
"8 	c #548F43",
"9 	c #74A460",
"0 	c #72A65A",
"a 	c #649A4C",
"b 	c #6FA753",
"c 	c #6FA654",
"d 	c #467B3B",
"e 	c #29612F",
"f 	c #518141",
"g 	c #679F4D",
"h 	c #639A4B",
"i 	c #43773A",
"j 	c #2B6630",
"k 	c #2E6D31",
"l 	c #265A2E",
"m 	c #507F40",
"n 	c #42773A",
"o 	c #2D6A30",
"p 	c #2A652F",
"q 	c #265B2E",
"r 	c #1F492B",
"s 	c #4E7D40",
"t 	c #437D3A",
"u 	c #2B6730",
"v 	c #2C6930",
"w 	c #204A2B",
"x 	c #4C7B3F",
"y 	c #427B3A",
"z 	c #28602E",
"A 	c #2A632F",
"B 	c #4B793E",
"C 	c #71A14F",
"D 	c #78984E",
"E 	c #6AA150",
"F 	c #6AA14F",
"G 	c #659C4D",
"H 	c #69A44F",
"I 	c #1D4529",
"J 	c #163520",
"K 	c #1D4527",
"L 	c #275D2E",
"M 	c #29612D",
"N 	c #24552B",
"O 	c #204C2B",
"P 	c #244E2D",
"Q 	c #679C4E",
"R 	c #6CA651",
"S 	c #6AA34F",
"T 	c #518A40",
"U 	c #558D43",
"V 	c #306E32",
"W 	c #2B6530",
"X 	c #214F2B",
"Y 	c #265A2D",
"Z 	c #183A21",
"` 	c #193D20",
" .	c #1D4627",
"..	c #1B4222",
"+.	c #173822",
"@.	c #1A3D25",
"#.	c #1C4328",
"$.	c #26502D",
"%.	c #598A45",
"&.	c #669C4D",
"*.	c #679D4D",
"=.	c #659D4D",
"-.	c #2D6B31",
";.	c #214F28",
">.	c #23522C",
",.	c #24562C",
"'.	c #49783D",
").	c #5A9446",
"!.	c #427C3A",
"~.	c #2C6730",
"{.	c #2D6A31",
"].	c #2D6B30",
"^.	c #285F2E",
"/.	c #265A2C",
"(.	c #225228",
"_.	c #25592D",
":.	c #61954A",
"<.	c #78A267",
"[.	c #72A160",
"}.	c #6BA550",
"|.	c #24562D",
"1.	c #22512A",
"2.	c #1E4828",
"3.	c #2D6C31",
"4.	c #225129",
"5.	c #275C2D",
"6.	c #204B2B",
"7.	c #3C6736",
"8.	c #6CA351",
"9.	c #729E4E",
"0.	c #79954C",
"a.	c #2D592D",
"b.	c #1C4423",
"c.	c #193B23",
"d.	c #29612E",
"e.	c #1E4927",
"f.	c #29622F",
"g.	c #1E4729",
"h.	c #122A1B",
"i.	c #132D1D",
"j.	c #1C4227",
"k.	c #193B24",
"l.	c #2D552F",
"m.	c #6FA652",
"n.	c #4E8140",
"o.	c #2E6C31",
"p.	c #2E6E31",
"q.	c #173722",
"r.	c #1B4124",
"s.	c #163420",
"t.	c #1E4629",
"u.	c #204D2B",
"v.	c #1B3F26",
"w.	c #163521",
"x.	c #183A23",
"y.	c #1D4428",
"z.	c #193C21",
"A.	c #44713A",
"B.	c #316B32",
"C.	c #24562B",
"D.	c #122C1C",
"E.	c #1C4326",
"F.	c #173621",
"G.	c #1A4023",
"H.	c #214F2A",
"I.	c #24552D",
"J.	c #4B783E",
"K.	c #669E4D",
"L.	c #3F7A38",
"M.	c #2A632D",
"N.	c #193C22",
"O.	c #25572B",
"P.	c #25572D",
"Q.	c #275C2E",
"R.	c #1F4A2B",
"S.	c #63974B",
"T.	c #5D9647",
"U.	c #528B41",
"V.	c #538942",
"W.	c #24552C",
"X.	c #2D6930",
"Y.	c #24542D",
"Z.	c #1C4327",
"`.	c #215029",
" +	c #3E6937",
".+	c #77974C",
"++	c #366133",
"@+	c #25582D",
"#+	c #22502C",
"$+	c #214F2C",
"%+	c #1F482B",
"&+	c #1B4026",
"*+	c #224F2C",
"=+	c #72A452",
"-+	c #6BA450",
";+	c #669B4D",
">+	c #1E482A",
",+	c #15311E",
"'+	c #14311E",
")+	c #1E472A",
"!+	c #1A3720",
"~+	c #689E4E",
"{+	c #70A551",
"]+	c #7A944B",
"^+	c #528142",
"/+	c #14301E",
"(+	c #183922",
"_+	c #15321F",
":+	c #193C24",
"<+	c #11291A",
"[+	c #163320",
"}+	c #132E1D",
"|+	c #193D24",
"1+	c #2C552F",
"2+	c #6BA250",
"3+	c #62984B",
"4+	c #5B9147",
"5+	c #5C9147",
"6+	c #1E462A",
"7+	c #15331F",
"8+	c #142F1D",
"9+	c #43703A",
"0+	c #67A04D",
"a+	c #639D4B",
"b+	c #568E43",
"c+	c #619A4A",
"d+	c #1A3E25",
"e+	c #214B2C",
"f+	c #62954A",
"g+	c #436F3A",
"h+	c #102619",
"i+	c #1A3D24",
"j+	c #183822",
"k+	c #1B4127",
"l+	c #102719",
"m+	c #173721",
"n+	c #345E33",
"o+	c #416D39",
"p+	c #1A3F25",
"q+	c #11281A",
"r+	c #122B1B",
"s+	c #132D1C",
"t+	c #10271A",
"u+	c #64994C",
"v+	c #598844",
"w+	c #142B1A",
"x+	c #0F2619",
"y+	c #162619",
"z+	c #1A311D",
"A+	c #3B5E2F",
"B+	c #4F7A3C",
"C+	c #65994C",
"D+	c #71A351",
"E+	c #79944B",
"F+	c #5E8F46",
"G+	c #527D3E",
"H+	c #45592C",
"I+	c #3C2D1C",
"J+	c #362817",
"K+	c #362918",
"L+	c #372817",
"M+	c #372918",
"N+	c #352918",
"O+	c #4B7138",
"P+	c #537B3D",
"Q+	c #5B8A44",
"R+	c #6CA250",
"S+	c #71A552",
"T+	c #7A944C",
"U+	c #70A652",
"V+	c #72A150",
"W+	c #627A3F",
"X+	c #5A462E",
"Y+	c #382817",
"Z+	c #4E3C27",
"`+	c #3B2B1A",
" @	c #4D3C26",
".@	c #453421",
"+@	c #68984B",
"@@	c #70A451",
"#@	c #7B8F4A",
"$@	c #779A4E",
"%@	c #72A351",
"&@	c #7BA369",
"*@	c #72A758",
"=@	c #62703C",
"-@	c #55422B",
";@	c #41301E",
">@	c #59462E",
",@	c #433320",
"'@	c #4D3B26",
")@	c #669048",
"!@	c #75994D",
"~@	c #769D4F",
"{@	c #749C4E",
"]@	c #75994C",
"^@	c #70A752",
"/@	c #7A954C",
"(@	c #72A15E",
"_@	c #71A657",
":@	c #7BA36B",
"<@	c #77A561",
"[@	c #53422A",
"}@	c #3F2E1C",
"|@	c #513E28",
"1@	c #614C32",
"2@	c #55422C",
"3@	c #695237",
"4@	c #586034",
"5@	c #6EA451",
"6@	c #75A050",
"7@	c #74A151",
"8@	c #7B8E49",
"9@	c #72A04F",
"0@	c #6FA359",
"a@	c #70A557",
"b@	c #6AA44F",
"c@	c #6A9B4D",
"d@	c #493A25",
"e@	c #3A2A18",
"f@	c #59452D",
"g@	c #5C4830",
"h@	c #463522",
"i@	c #53402A",
"j@	c #644F34",
"k@	c #638945",
"l@	c #749B4D",
"m@	c #749F4F",
"n@	c #79964D",
"o@	c #6B9D4E",
"p@	c #525930",
"q@	c #56422B",
"r@	c #453420",
"s@	c #624C33",
"t@	c #473623",
"u@	c #3C2C1A",
"v@	c #4A3925",
"w@	c #604B32",
"x@	c #565B32",
"y@	c #74A262",
"z@	c #586335",
"A@	c #59452E",
"B@	c #5B462E",
"C@	c #3B301B",
"D@	c #526F39",
"E@	c #4F3C27",
"F@	c #453B23",
"G@	c #654F34",
"H@	c #5A6536",
"I@	c #69984B",
"J@	c #6FA852",
"K@	c #6A9E4F",
"L@	c #60763F",
"M@	c #454827",
"N@	c #463A23",
"O@	c #4A572E",
"P@	c #516D37",
"Q@	c #608C48",
"R@	c #65954C",
"S@	c #5B7B40",
"T@	c #59743D",
"U@	c #4E6835",
"V@	c #4A3E25",
"W@	c #616239",
"X@	c #566A38",
"Y@	c #6BA050",
"Z@	c #6B9F50",
"`@	c #628F49",
" #	c #628E49",
".#	c #65964D",
"+#	c #638F49",
"@#	c #6DA351",
"##	c #70A854",
"$#	c #76A65F",
"%#	c #74A65C",
"&#	c #6EA751",
"*#	c #68A34E",
"=#	c #6EA452",
"-#	c #6EA552",
";#	c #749E4F",
">#	c #7E9878",
",#	c #839E79",
"'#	c #5F9749",
")#	c #588E45",
"!#	c #759F4F",
"~#	c #74A251",
"{#	c #6DA750",
"]#	c #69A34E",
"^#	c #71A250",
"/#	c #6DA751",
"(#	c #659F4C",
"_#	c #6AA450",
":#	c #6CA450",
"<#	c #73A351",
"[#	c #73A35F",
"}#	c #73A45D",
"|#	c #5C9347",
"1#	c #548B42",
"2#	c #67A24D",
"3#	c #69A34F",
"                                                                                                ",
"    .         + +                                                     @         #               ",
"  $ % & *     + +             = - ;                                 # >         , '   ) !       ",
"  + ~ {                       ] ^                           / ( _               #     : <       ",
"      [                                                       } $                       #       ",
"/ |       1 2 3 4                                                                       5 6     ",
". .       / 7 8                         9 0   $ a                                       #       ",
"  b $       [ [                         c b $ d e f                                             ",
"  g h                                     $ i j k l m                                           ",
"                                        * n o p k q r s                                         ",
"                                      * t u l k k v w r x b           ) '           #           ",
"                                    $ y u z A k k k l r r B           C D         # , #         ",
"  [ /     E F G         H +         a l I J K L M u N O r P Q * .                   #           ",
"  [ R     S T 4                   U V W X Y Z `  ...+.@.#.$.%.&.a *.                            ",
"                                =.k k -.k -.;.k -.k >.N ,.r r '.).h                             ",
"              R [               !.k ~.{.k ].^.k k k /.(._.r r r :.      '               <.[.    ",
"              }.              =.|.1.2.3.k ].4.k k -.5.J 5.6.r r 7.8.  9.0.              c /     ",
"                              F a.b.c.d./.,.e.-.W f.g.h.i.I j.k.l.m.                            ",
"                              n.o.p. .q.r.s.t.u.v.w.x.t.x.y.z.#.A.                              ",
"                            * B.k k -.C.D.+.E.F.G.H.I r ,.N I.r r J.b                           ",
"  K.          }.}         . L.k k k k M.N.d.I.r O.P.r y.e Q.R.r r r S.                    ! )   ",
"  T.U.                / H V.k v f.p |.W.L X.r r Y.P.r Z.`.L r r r r  +                    .+'   ",
"    [   [ R               ++@+#+r $+%+&+$+l r r r r r r j.*+r r r &+&+&.                    =+  ",
"  . -+  [ /             ;+r r r >+y.,+j.r r r j.%+r r r '+&+r j.)+y.!+~+                  {+]+  ",
"    +         $         $ ^+I /+x.c.(+_+#.>+:+<+(+>+>+#.c.h.[++.}+|+1+2+        3+4+2           ",
"          b h 5+          Q 6+I r r r t.x.c.(+:+&+(+/+J 7+:+8+8+#.r r 9+        0+a+            ",
"          / b+c+        2+1+r r r >+_+j.r r r r r )+%+r r r d+}+%+r r e+f+                      ",
"                      . g+r r #.r :+h+i+r j+r )+)+/+k+r r r >+l+&+r m+)+n+$                     ",
"                    m.o++.t.p+q+_+r+h+r+/+l+_+h+r+h+q+_+_+(+x.l+s+Z.t+'+I u+      #             ",
"                    $ v+w+(+h+h+h+h+h+h+x+x+x+x+y+x+x+h+h+h+h+h+h+h+z+A+B+C+    D+E+  =+D       ",
"            } }.        F+G+G+G+G+G+G+G+H+I+J+K+L+M+N+O+G+G+G+P+G+Q+R+        S+T+# E+U+V+E+#   ",
"                          + +           W+X+Y+Z+`+ @.@+@    @@#@            . $@%@  D+%@T+D+    ",
"  &@*@                    + +           =@-@;@>@,@X+'@)@            !@~@    . {@]@~@  ^@S+/@#   ",
"  (@_@  :@<@          .               # [@}@|@1@,@2@3@4@5@      6@=+  +           > 7@8@' 9@    ",
"        0@a@          b@/             c@d@e@f@g@h@i@j@X+k@      l@'               #   # m@n@    ",
"                                    o@p@q@r@s@t@u@v@>@w@x@m.                            . '     ",
"  y@.                             o@z@A@X+B@,@C@D@E@[@F@G@H@I@b                                 ",
"  J@                              K@L@M@N@O@P@Q@R@S@T@U@V@W@X@Y@                                ",
"                          . .     Z@R@`@ #.#R@R@R@.#R@R@+#.#.#@#                                ",
"  ##$#%#            + + H | / &#*#  =#Y@Y@Y@Y@Y@Y@Y@Y@Y@-#                        4       ;#~@  ",
"  / >#,#            + / H }./ b@[                           ! 7@              * '#)#      U+!#~#",
"    | {#      ####    + ]#+   . *#                          ^#!           /#    (#_#    b :#9@<#",
"              [#}#      / | .                                       @ E+              |#1#b     ",
"                            b@/                                       #               2#3#      ",
"                        *#                                                                      ",
"                                                  }.}                   E+#                     ",
"                                                                        D+[ .                   ",
"                                                                          [ +                   "};
