/* XPM */
static char * tree_xpm[] = {
"64 64 132 2",
"  	c #70A853",
". 	c #6FA853",
"+ 	c #5D9448",
"@ 	c #6EA652",
"# 	c #63A04B",
"$ 	c #70A852",
"% 	c #6FA851",
"& 	c #769E4F",
"* 	c #808748",
"= 	c #6FA953",
"- 	c #6EA551",
"; 	c #2F6B31",
"> 	c #377335",
", 	c #6FA752",
"' 	c #7FA271",
") 	c #959694",
"! 	c #6EA752",
"~ 	c #71A652",
"{ 	c #669142",
"] 	c #74A151",
"^ 	c #7D8E4A",
"/ 	c #5E9D47",
"( 	c #539741",
"_ 	c #5F9F48",
": 	c #396F35",
"< 	c #477E3C",
"[ 	c #689F4E",
"} 	c #708E45",
"| 	c #6DA651",
"1 	c #6CA550",
"2 	c #71A953",
"3 	c #70A953",
"4 	c #7C904B",
"5 	c #68A34E",
"6 	c #5D9D47",
"7 	c #69A04F",
"8 	c #508841",
"9 	c #86673C",
"0 	c #609E49",
"a 	c #3A7735",
"b 	c #3D7736",
"c 	c #81A174",
"d 	c #2E6D31",
"e 	c #1F492B",
"f 	c #6FA753",
"g 	c #6BA350",
"h 	c #689D4E",
"i 	c #7E8E4A",
"j 	c #7A964D",
"k 	c #70A752",
"l 	c #867743",
"m 	c #6CA651",
"n 	c #62994B",
"o 	c #397536",
"p 	c #619F49",
"q 	c #102619",
"r 	c #65A14C",
"s 	c #539241",
"t 	c #376D34",
"u 	c #4B7A3E",
"v 	c #589144",
"w 	c #568C44",
"x 	c #538842",
"y 	c #6CA650",
"z 	c #949892",
"A 	c #7C9D71",
"B 	c #6EA751",
"C 	c #886D3F",
"D 	c #837E45",
"E 	c #6AA44F",
"F 	c #4B843E",
"G 	c #397334",
"H 	c #5B9846",
"I 	c #629F4A",
"J 	c #759E4F",
"K 	c #6BA250",
"L 	c #376D35",
"M 	c #4A823E",
"N 	c #519440",
"O 	c #68A24E",
"P 	c #66A14D",
"Q 	c #508B40",
"R 	c #2E6A31",
"S 	c #747B3D",
"T 	c #857642",
"U 	c #759F50",
"V 	c #382817",
"W 	c #71A753",
"X 	c #857A44",
"Y 	c #6B5438",
"Z 	c #4A3925",
"` 	c #74A150",
" .	c #838146",
"..	c #8B9C85",
"+.	c #869F7C",
"@.	c #818647",
"#.	c #65A24B",
"$.	c #7EA36F",
"%.	c #80A173",
"&.	c #7F8446",
"*.	c #7D743D",
"=.	c #808848",
"-.	c #6CA551",
";.	c #629756",
">.	c #72A452",
",.	c #70A753",
"'.	c #6FA954",
").	c #7F9979",
"!.	c #69A44E",
"~.	c #65954C",
"{.	c #6FA852",
"].	c #64A14C",
"^.	c #5A9849",
"/.	c #969696",
"(.	c #899D82",
"_.	c #62A04A",
":.	c #60984A",
"<.	c #62974B",
"[.	c #71A752",
"}.	c #5D9E46",
"|.	c #67A34D",
"1.	c #76934A",
"2.	c #407838",
"3.	c #427F38",
"4.	c #71A756",
"5.	c #6DA552",
"6.	c #5D9E45",
"7.	c #7F743E",
"8.	c #548C43",
"9.	c #4F8540",
"0.	c #6AA14F",
"a.	c #4F923F",
"                                                                                                                                ",
"                    .                                                                                                           ",
"    + @           . #                   $ %                                                 & *             =                   ",
"    - ; > ,                             ' ) %                                       ,       ! ~           { ]       ^           ",
"    / ( _                                                                         : < [                             }           ",
"                                                                                  | 1                                           ",
"              2     3                                                                                                 4         ",
"5 6           7   @ 8                                                                                                 9         ",
"              0 a b                                 $ c $     d e                                                               ",
"                                                      1     d d e e                                                             ",
"  f g g                                                   d e d d e e                                                           ",
"    h .                                                 d d d d d e e e                                                         ",
"                                                      d d d d d d d e e e                                                       ",
"                                                    d d d e d d d d e e e e                                                     ",
"                                                  d d d e d d d d d d e e e e                 i j               j               ",
"                                                  d e e e e d d d d d d e e e e               |               k l               ",
"    m         n 2 o             p |             e e e q e q e e q d q e e e e       3                                           ",
"    r .       s t 1                           d d d e e d e q q e q q q q e e e     u   ,                                       ",
"                                            d d d d d d d q d d d d e e d e e e e   v w x                                       ",
"                                          d d d d d d d d e d d d d d q d e e e e e , y                                         ",
"                                          d d d e d d d d d d d d d d q d e e e e e e                               $ z A       ",
"                  1 B                     e e e q d d d d q d d d d d e q d e e e e e         C D                     1 |       ",
"                                          d q q e d d d e e d d d d e q q q e e e e e                                           ",
"                                          d d d q e d e e e e e e e e q e q q q q q e                                           ",
"                                        d d d d e q q q q e e e q q e e e q e d q e e                                           ",
"                                        d d d d d d q q e e e q e e e e e d q d e e e e                                         ",
"                    E                 d d d d d d d q q d d e e d e e e e d d e e e e e e                                       ",
"  F   ,             0               d d d d d d d d e d d e e e d e e e q d d e e e e e e                               ^       ",
"  p G H                       I r e d d d e e e e e e e d e e e e e e e e e d e e e e e e e                             }       ",
"                                  e e e e e e e e q e e d e e e e e e e e e e e e e e e q e                                     ",
"            p |                   e e e e e e e q e e e e e e e e e e e e q e e e q e e e q                               l     ",
"    0 |                           e e e e q e q q e e e e e q q e e e e e q q e e e e e q e                               J     ",
"                                    e q q e e e e q q e e q q q q e e e q e q q q q q q e e               , K L                 ",
"                  M                 e e e e e e e e e q e q q e e q q q q q e e q q e e e e e             1 N O                 ",
"              P Q R               e e e e e e e q e e e e e e e e e e e e e e e q q e e e e e                                   ",
"                y y               e e e e e e q q e e e e e e e e e e e e e e e q q e e e e e e                                 ",
"                                e e e e q e e q q q e e q e e e e q q e e e e e e q q e e q e e e                               ",
"                              e q e e q q q q q q q q q q q q q q q q q q q q e e q q e e q q e e                               ",
"                            e q q e q q q q q q q q q q q q q q q q q q q q q q q q q q q q q q q           &                   ",
"                                q q q q q q q q q q q q q q q q q q q q q q q q q q q q q q                 S ~     T U         ",
"                E 0                                   V V V V V V V V V           =                       l   W X   3 W X       ",
"                                    .                 Y Z V Z Z V Z Z V         = 4 =                   W J     `   ^   `       ",
"                                  . #                 Y Z V Y Z V Y Z Z           3         j         -  .  j       }   3       ",
"  ..+.                                              Z Y V V Y Z V Z Y Z                   k l             k l ~       ~ @.      ",
"    #.    $.%.                                      Z Z V Z Y Z V Z Y Y Z             4       5             3 &.3 *.=.  3       ",
"          -.;.                5                     Z Z V Z Y Z V Z Y Y Z             9                               >.,.      ",
"                                                  Z Z V V Y Z Z Z Z Y Z Y Z                                           I '.      ",
"                                                Z Z Y V Y Z Z V V Z Y V Y Z                                                     ",
"  ).!.                                        Z Z Z Z Y Z V V V ~.Z Z V Z Y V Z                                                 ",
"                                              ~.Z V V V V V ~.~.~.~.Z ~.V V Y Z ~.                                              ",
"                                              ~.~.~.Z ~.~.~.~.~.~.~.~.~.~.~.~.~.~.                                              ",
"                                    I     .   ~.~.~.~.~.~.~.~.~.~.~.~.~.~.~.~.~.~.                                              ",
"    $ % {.                  E   p   r     ].                                                                  2         & *     ",
"    ^./.(.                  0   | 1   / _.                                                              2 7 :.<.        ! ~ [.  ",
"    E }.#.                    |.E B       5                                     1.l                       2.3.|           ~  .  ",
"                    4.            1       6                                                 W                         5.2       ",
"                  . 6.            B                                                         7.`                   8.9.0.        ",
"                                      5                                                                           1 a..         ",
"                                E                                                                                               ",
"                                0                                   .                                                           ",
"                                                                  . #                         W X                               ",
"                                                                                                `                               ",
"                                                                                                    6                           ",
"                                                                                                                                "};
